<svg xmlns="http://www.w3.org/2000/svg" viewBox="0 0 30 30">
  <defs>
    <linearGradient id="icon-grad" x1="0%" y1="0%" x2="100%" y2="100%">
      <stop offset="0%" stop-color="#6366f1" />
      <stop offset="100%" stop-color="#4f46e5" />
    </linearGradient>
  </defs>
  <rect width="30" height="30" rx="7" fill="url(#icon-grad)" />
  <path d="M6.984375 2.9863281 A 1.0001 1.0001 0 0 0 6 4L6 7L5 7C3.3550302 7 2 8.3550302 2 10L2 24C2 25.64497 3.3550302 27 5 27L25 27C26.64497 27 28 25.64497 28 24L28 10C28 8.3550302 26.64497 7 25 7L24 7L24 4 A 1.0001 1.0001 0 0 0 22.984375 2.9863281 A 1.0001 1.0001 0 0 0 22 4L22 7L20 7L20 4C20 3.448 19.552 3 19 3L18 3C17.448 3 17 3.448 17 4L17 7L15 7L15 4C15 3.448 14.552 3 14 3L11 3C10.448 3 10 3.448 10 4L10 7L8 7L8 4 A 1.0001 1.0001 0 0 0 6.984375 2.9863281 z M 5 9L6.8320312 9 A 1.0001 1.0001 0 0 0 7.1582031 9L22.832031 9 A 1.0001 1.0001 0 0 0 23.158203 9L25 9C25.56503 9 26 9.4349698 26 10L26 24C26 24.56503 25.56503 25 25 25L5 25C4.4349698 25 4 24.56503 4 24L4 10C4 9.4349698 4.4349698 9 5 9 z M 6.984375 10.986328 A 1.0001 1.0001 0 0 0 6.8398438 11L6 11L6 12L6 13L6 22 A 1.0001 1.0001 0 1 0 8 22L8 13L8 12L8 11L7.1542969 11 A 1.0001 1.0001 0 0 0 6.984375 10.986328 z M 22.984375 10.986328 A 1.0001 1.0001 0 0 0 22.839844 11L22 11L22 12L22 13L22 22 A 1.0001 1.0001 0 1 0 24 22L24 13L24 12L24 11L23.154297 11 A 1.0001 1.0001 0 0 0 22.984375 10.986328 z M 10 11L10 22C10 22.552 10.448 23 11 23L14 23C14.552 23 15 22.552 15 22L15 11L10 11 z M 17 11L17 22C17 22.552 17.448 23 18 23L19 23C19.552 23 20 22.552 20 22L20 11L17 11 z" fill="#FFFFFF" />
</svg>